<svg width="162" height="579" viewBox="0 0 162 579" fill="none" xmlns="http://www.w3.org/2000/svg">
<mask id="mask0_83_5627" style="mask-type:luminance" maskUnits="userSpaceOnUse" x="0" y="0" width="162" height="579">
<ellipse cx="81" cy="568.5" rx="81" ry="10.5" fill="url(#paint0_linear_83_5627)"/>
<ellipse cx="81" cy="550.5" rx="81" ry="10.5" fill="url(#paint1_linear_83_5627)"/>
<ellipse cx="81" cy="532.5" rx="81" ry="10.5" fill="url(#paint2_linear_83_5627)"/>
<ellipse cx="81" cy="514.5" rx="81" ry="10.5" fill="url(#paint3_linear_83_5627)"/>
<ellipse cx="81" cy="496.5" rx="81" ry="10.5" fill="url(#paint4_linear_83_5627)"/>
<ellipse cx="81" cy="478.5" rx="81" ry="10.5" fill="url(#paint5_linear_83_5627)"/>
<ellipse cx="81" cy="460.5" rx="81" ry="10.5" fill="url(#paint6_linear_83_5627)"/>
<ellipse cx="81" cy="442.5" rx="81" ry="10.5" fill="url(#paint7_linear_83_5627)"/>
<ellipse cx="81" cy="424.5" rx="81" ry="10.5" fill="url(#paint8_linear_83_5627)"/>
<ellipse cx="81" cy="406.5" rx="81" ry="10.5" fill="url(#paint9_linear_83_5627)"/>
<ellipse cx="81" cy="388.5" rx="81" ry="10.5" fill="url(#paint10_linear_83_5627)"/>
<ellipse cx="81" cy="370.5" rx="81" ry="10.5" fill="url(#paint11_linear_83_5627)"/>
<ellipse cx="81" cy="352.5" rx="81" ry="10.5" fill="url(#paint12_linear_83_5627)"/>
<ellipse cx="81" cy="334.5" rx="81" ry="10.5" fill="url(#paint13_linear_83_5627)"/>
<ellipse cx="81" cy="316.5" rx="81" ry="10.5" fill="url(#paint14_linear_83_5627)"/>
<ellipse cx="81" cy="298.5" rx="81" ry="10.5" fill="url(#paint15_linear_83_5627)"/>
<ellipse cx="81" cy="280.5" rx="81" ry="10.5" fill="url(#paint16_linear_83_5627)"/>
<ellipse cx="81" cy="262.5" rx="81" ry="10.5" fill="url(#paint17_linear_83_5627)"/>
<ellipse cx="81" cy="244.5" rx="81" ry="10.5" fill="url(#paint18_linear_83_5627)"/>
<ellipse cx="81" cy="226.5" rx="81" ry="10.5" fill="url(#paint19_linear_83_5627)"/>
<ellipse cx="81" cy="208.5" rx="81" ry="10.5" fill="url(#paint20_linear_83_5627)"/>
<ellipse cx="81" cy="190.5" rx="81" ry="10.5" fill="url(#paint21_linear_83_5627)"/>
<ellipse cx="81" cy="172.5" rx="81" ry="10.5" fill="url(#paint22_linear_83_5627)"/>
<ellipse cx="81" cy="154.5" rx="81" ry="10.5" fill="url(#paint23_linear_83_5627)"/>
<ellipse cx="81" cy="136.5" rx="81" ry="10.5" fill="url(#paint24_linear_83_5627)"/>
<ellipse cx="81" cy="118.5" rx="81" ry="10.5" fill="url(#paint25_linear_83_5627)"/>
<ellipse cx="81" cy="100.5" rx="81" ry="10.5" fill="url(#paint26_linear_83_5627)"/>
<ellipse cx="81" cy="82.5" rx="81" ry="10.5" fill="url(#paint27_linear_83_5627)"/>
<ellipse cx="81" cy="64.5" rx="81" ry="10.5" fill="url(#paint28_linear_83_5627)"/>
<ellipse cx="81" cy="46.5" rx="81" ry="10.5" fill="url(#paint29_linear_83_5627)"/>
<ellipse cx="81" cy="28.5" rx="81" ry="10.5" fill="url(#paint30_linear_83_5627)"/>
<ellipse cx="81" cy="10.5" rx="81" ry="10.5" fill="url(#paint31_linear_83_5627)"/>
</mask>
<g mask="url(#mask0_83_5627)">
<rect width="162" height="579" fill="url(#paint32_linear_83_5627)"/>
<rect width="162" height="579" fill="url(#paint33_radial_83_5627)"/>
</g>
<defs>
<linearGradient id="paint0_linear_83_5627" x1="81" y1="579" x2="81" y2="558" gradientUnits="userSpaceOnUse">
<stop stop-color="white"/>
<stop offset="1" stop-color="#7A7A7A"/>
</linearGradient>
<linearGradient id="paint1_linear_83_5627" x1="81" y1="561" x2="81" y2="540" gradientUnits="userSpaceOnUse">
<stop stop-color="white"/>
<stop offset="1" stop-color="#7A7A7A"/>
</linearGradient>
<linearGradient id="paint2_linear_83_5627" x1="81" y1="543" x2="81" y2="522" gradientUnits="userSpaceOnUse">
<stop stop-color="white"/>
<stop offset="1" stop-color="#7A7A7A"/>
</linearGradient>
<linearGradient id="paint3_linear_83_5627" x1="81" y1="525" x2="81" y2="504" gradientUnits="userSpaceOnUse">
<stop stop-color="white"/>
<stop offset="1" stop-color="#7A7A7A"/>
</linearGradient>
<linearGradient id="paint4_linear_83_5627" x1="81" y1="507" x2="81" y2="486" gradientUnits="userSpaceOnUse">
<stop stop-color="white"/>
<stop offset="1" stop-color="#7A7A7A"/>
</linearGradient>
<linearGradient id="paint5_linear_83_5627" x1="81" y1="489" x2="81" y2="468" gradientUnits="userSpaceOnUse">
<stop stop-color="white"/>
<stop offset="1" stop-color="#7A7A7A"/>
</linearGradient>
<linearGradient id="paint6_linear_83_5627" x1="81" y1="471" x2="81" y2="450" gradientUnits="userSpaceOnUse">
<stop stop-color="white"/>
<stop offset="1" stop-color="#7A7A7A"/>
</linearGradient>
<linearGradient id="paint7_linear_83_5627" x1="81" y1="453" x2="81" y2="432" gradientUnits="userSpaceOnUse">
<stop stop-color="white"/>
<stop offset="1" stop-color="#7A7A7A"/>
</linearGradient>
<linearGradient id="paint8_linear_83_5627" x1="81" y1="435" x2="81" y2="414" gradientUnits="userSpaceOnUse">
<stop stop-color="white"/>
<stop offset="1" stop-color="#7A7A7A"/>
</linearGradient>
<linearGradient id="paint9_linear_83_5627" x1="81" y1="417" x2="81" y2="396" gradientUnits="userSpaceOnUse">
<stop stop-color="white"/>
<stop offset="1" stop-color="#7A7A7A"/>
</linearGradient>
<linearGradient id="paint10_linear_83_5627" x1="81" y1="399" x2="81" y2="378" gradientUnits="userSpaceOnUse">
<stop stop-color="white"/>
<stop offset="1" stop-color="#7A7A7A"/>
</linearGradient>
<linearGradient id="paint11_linear_83_5627" x1="81" y1="381" x2="81" y2="360" gradientUnits="userSpaceOnUse">
<stop stop-color="white"/>
<stop offset="1" stop-color="#7A7A7A"/>
</linearGradient>
<linearGradient id="paint12_linear_83_5627" x1="81" y1="363" x2="81" y2="342" gradientUnits="userSpaceOnUse">
<stop stop-color="white"/>
<stop offset="1" stop-color="#7A7A7A"/>
</linearGradient>
<linearGradient id="paint13_linear_83_5627" x1="81" y1="345" x2="81" y2="324" gradientUnits="userSpaceOnUse">
<stop stop-color="white"/>
<stop offset="1" stop-color="#7A7A7A"/>
</linearGradient>
<linearGradient id="paint14_linear_83_5627" x1="81" y1="327" x2="81" y2="306" gradientUnits="userSpaceOnUse">
<stop stop-color="white"/>
<stop offset="1" stop-color="#7A7A7A"/>
</linearGradient>
<linearGradient id="paint15_linear_83_5627" x1="81" y1="309" x2="81" y2="288" gradientUnits="userSpaceOnUse">
<stop stop-color="white"/>
<stop offset="1" stop-color="#7A7A7A"/>
</linearGradient>
<linearGradient id="paint16_linear_83_5627" x1="81" y1="291" x2="81" y2="270" gradientUnits="userSpaceOnUse">
<stop stop-color="white"/>
<stop offset="1" stop-color="#7A7A7A"/>
</linearGradient>
<linearGradient id="paint17_linear_83_5627" x1="81" y1="273" x2="81" y2="252" gradientUnits="userSpaceOnUse">
<stop stop-color="white"/>
<stop offset="1" stop-color="#7A7A7A"/>
</linearGradient>
<linearGradient id="paint18_linear_83_5627" x1="81" y1="255" x2="81" y2="234" gradientUnits="userSpaceOnUse">
<stop stop-color="white"/>
<stop offset="1" stop-color="#7A7A7A"/>
</linearGradient>
<linearGradient id="paint19_linear_83_5627" x1="81" y1="237" x2="81" y2="216" gradientUnits="userSpaceOnUse">
<stop stop-color="white"/>
<stop offset="1" stop-color="#7A7A7A"/>
</linearGradient>
<linearGradient id="paint20_linear_83_5627" x1="81" y1="219" x2="81" y2="198" gradientUnits="userSpaceOnUse">
<stop stop-color="white"/>
<stop offset="1" stop-color="#7A7A7A"/>
</linearGradient>
<linearGradient id="paint21_linear_83_5627" x1="81" y1="201" x2="81" y2="180" gradientUnits="userSpaceOnUse">
<stop stop-color="white"/>
<stop offset="1" stop-color="#7A7A7A"/>
</linearGradient>
<linearGradient id="paint22_linear_83_5627" x1="81" y1="183" x2="81" y2="162" gradientUnits="userSpaceOnUse">
<stop stop-color="white"/>
<stop offset="1" stop-color="#7A7A7A"/>
</linearGradient>
<linearGradient id="paint23_linear_83_5627" x1="81" y1="165" x2="81" y2="144" gradientUnits="userSpaceOnUse">
<stop stop-color="white"/>
<stop offset="1" stop-color="#7A7A7A"/>
</linearGradient>
<linearGradient id="paint24_linear_83_5627" x1="81" y1="147" x2="81" y2="126" gradientUnits="userSpaceOnUse">
<stop stop-color="white"/>
<stop offset="1" stop-color="#7A7A7A"/>
</linearGradient>
<linearGradient id="paint25_linear_83_5627" x1="81" y1="129" x2="81" y2="108" gradientUnits="userSpaceOnUse">
<stop stop-color="white"/>
<stop offset="1" stop-color="#7A7A7A"/>
</linearGradient>
<linearGradient id="paint26_linear_83_5627" x1="81" y1="111" x2="81" y2="90" gradientUnits="userSpaceOnUse">
<stop stop-color="white"/>
<stop offset="1" stop-color="#7A7A7A"/>
</linearGradient>
<linearGradient id="paint27_linear_83_5627" x1="81" y1="93" x2="81" y2="72" gradientUnits="userSpaceOnUse">
<stop stop-color="white"/>
<stop offset="1" stop-color="#7A7A7A"/>
</linearGradient>
<linearGradient id="paint28_linear_83_5627" x1="81" y1="75" x2="81" y2="54" gradientUnits="userSpaceOnUse">
<stop stop-color="white"/>
<stop offset="1" stop-color="#7A7A7A"/>
</linearGradient>
<linearGradient id="paint29_linear_83_5627" x1="81" y1="57" x2="81" y2="36" gradientUnits="userSpaceOnUse">
<stop stop-color="white"/>
<stop offset="1" stop-color="#7A7A7A"/>
</linearGradient>
<linearGradient id="paint30_linear_83_5627" x1="81" y1="39" x2="81" y2="18" gradientUnits="userSpaceOnUse">
<stop stop-color="white"/>
<stop offset="1" stop-color="#7A7A7A"/>
</linearGradient>
<linearGradient id="paint31_linear_83_5627" x1="81" y1="21" x2="81" y2="8.65341e-07" gradientUnits="userSpaceOnUse">
<stop stop-color="white"/>
<stop offset="1" stop-color="#7A7A7A"/>
</linearGradient>
<linearGradient id="paint32_linear_83_5627" x1="-9.70423e-06" y1="57.9" x2="99.2335" y2="33.3219" gradientUnits="userSpaceOnUse">
<stop offset="0.0989996" stop-color="#D42CFE"/>
<stop offset="1" stop-color="#FF289C"/>
</linearGradient>
<radialGradient id="paint33_radial_83_5627" cx="0" cy="0" r="1" gradientUnits="userSpaceOnUse" gradientTransform="translate(81.2308 -2.02114e-05) rotate(96.931) scale(583.262 261.221)">
<stop stop-color="#F0724A"/>
<stop offset="1" stop-color="#F0724A" stop-opacity="0"/>
</radialGradient>
</defs>
</svg>
