<svg width="352" height="200" viewBox="0 0 352 200" fill="none" xmlns="http://www.w3.org/2000/svg">
<path fill-rule="evenodd" clip-rule="evenodd" d="M8.1084 0C12.5865 0 16.2168 3.6417 16.2168 8.13397V183.732H146.606V16.2679H77.8134C73.3352 16.2679 69.705 12.6262 69.705 8.13397C69.705 3.6417 73.3352 0 77.8134 0H343.414C346.61 0 349.509 1.88393 350.815 4.81069C352.121 7.73745 351.591 11.1608 349.461 13.5524L197.94 183.732H343.892C348.37 183.732 352 187.374 352 191.866C352 196.358 348.37 200 343.892 200H179.827C176.63 200 173.732 198.116 172.426 195.189C171.12 192.263 171.65 188.839 173.779 186.448L325.3 16.2679H162.823V191.866C162.823 196.358 159.192 200 154.714 200H8.1084C3.63026 200 0 196.358 0 191.866V8.13397C0 3.6417 3.63026 0 8.1084 0Z" fill="url(#paint0_linear_39_13)"/>
<path fill-rule="evenodd" clip-rule="evenodd" d="M8.1084 0C12.5865 0 16.2168 3.6417 16.2168 8.13397V183.732H146.606V16.2679H77.8134C73.3352 16.2679 69.705 12.6262 69.705 8.13397C69.705 3.6417 73.3352 0 77.8134 0H343.414C346.61 0 349.509 1.88393 350.815 4.81069C352.121 7.73745 351.591 11.1608 349.461 13.5524L197.94 183.732H343.892C348.37 183.732 352 187.374 352 191.866C352 196.358 348.37 200 343.892 200H179.827C176.63 200 173.732 198.116 172.426 195.189C171.12 192.263 171.65 188.839 173.779 186.448L325.3 16.2679H162.823V191.866C162.823 196.358 159.192 200 154.714 200H8.1084C3.63026 200 0 196.358 0 191.866V8.13397C0 3.6417 3.63026 0 8.1084 0Z" fill="url(#paint1_radial_39_13)"/>
<defs>
<linearGradient id="paint0_linear_39_13" x1="8.1084" y1="26.5072" x2="357.201" y2="62.3942" gradientUnits="userSpaceOnUse">
<stop offset="0.0989996" stop-color="#D42CFE"/>
<stop offset="1" stop-color="#FF289C"/>
</linearGradient>
<radialGradient id="paint1_radial_39_13" cx="0" cy="0" r="1" gradientUnits="userSpaceOnUse" gradientTransform="translate(176.478 8.13398) rotate(128.451) scale(234.608 427.149)">
<stop stop-color="#F0724A"/>
<stop offset="1" stop-color="#F0724A" stop-opacity="0"/>
</radialGradient>
</defs>
</svg>
